<?xml version="1.0" encoding="UTF-8"?>
<svg id="Layer_2" data-name="Layer 2" xmlns="http://www.w3.org/2000/svg" viewBox="0 0 146.37 58.11">
  <defs>
    <style>
      .cls-1 {
        stroke-width: 0px;
      }
    </style>
  </defs>
  <g id="Layer_1-2" data-name="Layer 1">
    <g>
      <path class="cls-1" d="M78.16,57.94c-1.77.59-3.7-.38-4.29-2.15l-8.67-26.19c-1.79-5.4-9.35-5.62-11.45-.34l-10.2,25.66c-.55,1.38-1.93,2.21-3.34,2.13h-.01c-1.52.12-2.99-.8-3.49-2.31l-8.61-25.99c-1.79-5.4-9.35-5.62-11.45-.34l-10.11,25.44c-.69,1.73-2.67,2.59-4.4,1.9-1.73-.69-2.59-2.67-1.9-4.4L19.8,2.13C20.36.72,21.77-.1,23.2,0c.02,0,.05,0,.07,0,1.42,0,2.75.91,3.23,2.32l8.67,26.19c1.79,5.4,9.35,5.62,11.45.34L56.82,3.19c.55-1.38,1.93-2.21,3.34-2.13h.01c.09-.01.17-.01.26-.01,1.42,0,2.75.91,3.23,2.32l16.65,50.28c.59,1.77-.38,3.7-2.15,4.28Z"/>
      <path class="cls-1" d="M68.21.17c1.77-.59,3.7.38,4.29,2.15l8.67,26.19c1.79,5.4,9.35,5.62,11.45.34l10.2-25.66c.55-1.38,1.93-2.21,3.34-2.13h.01c1.52-.12,2.99.8,3.49,2.31l8.61,25.99c1.79,5.4,9.35,5.62,11.45.34l10.11-25.44c.69-1.73,2.67-2.59,4.4-1.9,1.73.69,2.59,2.67,1.9,4.4l-19.57,49.22c-.55,1.41-1.97,2.23-3.4,2.12-.02,0-.05,0-.07,0-1.42,0-2.75-.91-3.23-2.32l-8.67-26.19c-1.79-5.4-9.35-5.62-11.45-.34l-10.2,25.66c-.55,1.38-1.93,2.21-3.34,2.13h-.01c-.09.01-.17.01-.26.01-1.42,0-2.75-.91-3.23-2.32L66.06,4.45c-.59-1.77.38-3.7,2.15-4.28Z"/>
    </g>
  </g>
</svg>